<svg id="visual" viewBox="0 0 900 600" width="900" height="600" xmlns="http://www.w3.org/2000/svg" xmlns:xlink="http://www.w3.org/1999/xlink" version="1.1"><rect x="0" y="0" width="900" height="600" fill="#001220"></rect><defs><linearGradient id="grad1_0" x1="33.3%" y1="0%" x2="100%" y2="100%"><stop offset="20%" stop-color="#ff0066" stop-opacity="1"></stop><stop offset="80%" stop-color="#ff0066" stop-opacity="1"></stop></linearGradient></defs><defs><linearGradient id="grad1_1" x1="33.3%" y1="0%" x2="100%" y2="100%"><stop offset="20%" stop-color="#ff0066" stop-opacity="1"></stop><stop offset="80%" stop-color="#9a2881" stop-opacity="1"></stop></linearGradient></defs><defs><linearGradient id="grad1_2" x1="33.3%" y1="0%" x2="100%" y2="100%"><stop offset="20%" stop-color="#312c62" stop-opacity="1"></stop><stop offset="80%" stop-color="#9a2881" stop-opacity="1"></stop></linearGradient></defs><defs><linearGradient id="grad1_3" x1="33.3%" y1="0%" x2="100%" y2="100%"><stop offset="20%" stop-color="#312c62" stop-opacity="1"></stop><stop offset="80%" stop-color="#001220" stop-opacity="1"></stop></linearGradient></defs><defs><linearGradient id="grad2_0" x1="0%" y1="0%" x2="66.7%" y2="100%"><stop offset="20%" stop-color="#ff0066" stop-opacity="1"></stop><stop offset="80%" stop-color="#ff0066" stop-opacity="1"></stop></linearGradient></defs><defs><linearGradient id="grad2_1" x1="0%" y1="0%" x2="66.7%" y2="100%"><stop offset="20%" stop-color="#9a2881" stop-opacity="1"></stop><stop offset="80%" stop-color="#ff0066" stop-opacity="1"></stop></linearGradient></defs><defs><linearGradient id="grad2_2" x1="0%" y1="0%" x2="66.7%" y2="100%"><stop offset="20%" stop-color="#9a2881" stop-opacity="1"></stop><stop offset="80%" stop-color="#312c62" stop-opacity="1"></stop></linearGradient></defs><defs><linearGradient id="grad2_3" x1="0%" y1="0%" x2="66.7%" y2="100%"><stop offset="20%" stop-color="#001220" stop-opacity="1"></stop><stop offset="80%" stop-color="#312c62" stop-opacity="1"></stop></linearGradient></defs><g transform="translate(900, 0)"><path d="M0 486.7C-60.9 459.2 -121.8 431.7 -163.4 394.5C-205 357.3 -227.3 310.4 -278.6 278.6C-329.9 246.8 -410.2 230.2 -449.7 186.3C-489.2 142.4 -488 71.2 -486.7 0L0 0Z" fill="#0a2142"></path><path d="M0 365.1C-45.7 344.4 -91.4 323.8 -122.6 295.9C-153.8 268 -170.5 232.8 -209 209C-247.4 185.1 -307.6 172.6 -337.3 139.7C-366.9 106.8 -366 53.4 -365.1 0L0 0Z" fill="#623078"></path><path d="M0 243.4C-30.5 229.6 -60.9 215.9 -81.7 197.2C-102.5 178.6 -113.7 155.2 -139.3 139.3C-164.9 123.4 -205.1 115.1 -224.8 93.1C-244.6 71.2 -244 35.6 -243.4 0L0 0Z" fill="#d0127b"></path><path d="M0 121.7C-15.2 114.8 -30.5 107.9 -40.9 98.6C-51.3 89.3 -56.8 77.6 -69.7 69.7C-82.5 61.7 -102.5 57.5 -112.4 46.6C-122.3 35.6 -122 17.8 -121.7 0L0 0Z" fill="#ff0066"></path></g><g transform="translate(0, 600)"><path d="M0 -486.7C69.9 -482.5 139.9 -478.2 182.2 -439.8C224.4 -401.3 239.1 -328.8 285.7 -285.7C332.3 -242.6 410.9 -229 449.7 -186.3C488.5 -143.6 487.6 -71.8 486.7 0L0 0Z" fill="#0a2142"></path><path d="M0 -365.1C52.5 -361.9 104.9 -358.6 136.6 -329.8C168.3 -301 179.3 -246.6 214.3 -214.3C249.2 -181.9 308.1 -171.7 337.3 -139.7C366.4 -107.7 365.7 -53.8 365.1 0L0 0Z" fill="#623078"></path><path d="M0 -243.4C35 -241.2 69.9 -239.1 91.1 -219.9C112.2 -200.7 119.5 -164.4 142.8 -142.8C166.1 -121.3 205.4 -114.5 224.8 -93.1C244.3 -71.8 243.8 -35.9 243.4 0L0 0Z" fill="#d0127b"></path><path d="M0 -121.7C17.5 -120.6 35 -119.5 45.5 -109.9C56.1 -100.3 59.8 -82.2 71.4 -71.4C83.1 -60.6 102.7 -57.2 112.4 -46.6C122.1 -35.9 121.9 -17.9 121.7 0L0 0Z" fill="#ff0066"></path></g></svg>